<?xml version="1.0" standalone="no"?>
<!DOCTYPE svg PUBLIC "-//W3C//DTD SVG 20010904//EN"
 "http://www.w3.org/TR/2001/REC-SVG-20010904/DTD/svg10.dtd">
<svg version="1.0" xmlns="http://www.w3.org/2000/svg"
 width="512.000000pt" height="512.000000pt" viewBox="0 0 512.000000 512.000000"
 preserveAspectRatio="xMidYMid meet">
<metadata>
Created by potrace 1.11, written by Peter Selinger 2001-2013
</metadata>
<g transform="translate(0.000000,512.000000) scale(0.100000,-0.100000)"
fill="#000000" stroke="none">
<path d="M2457 5114 c-1 -1 -42 -4 -92 -8 -139 -9 -169 -14 -335 -47 -395 -78
-812 -284 -1135 -560 -76 -65 -241 -235 -300 -309 -33 -41 -66 -81 -73 -89
-25 -26 -148 -215 -194 -297 -140 -251 -257 -588 -293 -847 -3 -27 -8 -59 -11
-70 -22 -111 -22 -521 0 -645 2 -9 7 -39 10 -67 11 -76 20 -123 30 -160 2 -5
6 -28 11 -50 15 -82 94 -318 137 -415 291 -646 785 -1122 1427 -1375 156 -60
374 -119 531 -141 19 -2 44 -6 55 -9 115 -24 526 -24 665 0 273 46 422 84 591
151 287 113 507 245 754 454 112 94 328 333 408 450 61 90 110 166 138 216
360 641 432 1391 199 2084 -98 293 -273 602 -475 837 -67 79 -231 242 -294
293 -23 19 -55 45 -69 58 -66 57 -319 217 -439 276 -72 37 -134 66 -137 66 -3
0 -25 9 -49 19 -106 49 -381 128 -502 146 -23 3 -52 8 -65 10 -25 5 -49 8
-170 21 -58 6 -317 13 -323 8z"/>
</g>
</svg>
